<svg xmlns="http://www.w3.org/2000/svg" version="1.1" xmlns:xlink="http://www.w3.org/1999/xlink" xmlns:svgjs="http://svgjs.com/svgjs" width="1440" height="560" preserveAspectRatio="none" viewBox="0 0 1440 560"><g mask="url(&quot;#SvgjsMask1015&quot;)" fill="none"><rect width="1440" height="560" x="0" y="0" fill="rgba(238, 155, 0, 1)"></rect><path d="M 0,189 C 57.6,155.4 172.8,9.8 288,21 C 403.2,32.2 460.8,246.4 576,245 C 691.2,243.6 748.8,22.4 864,14 C 979.2,5.6 1036.8,205.2 1152,203 C 1267.2,200.8 1382.4,43 1440,3L1440 560L0 560z" fill="rgba(202, 103, 2, 1)"></path><path d="M 0,397 C 96,402 288,438 480,422 C 672,406 768,308.4 960,317 C 1152,325.6 1344,435.4 1440,465L1440 560L0 560z" fill="rgba(187, 62, 3, 1)"></path></g><defs><mask id="SvgjsMask1015"><rect width="1440" height="560" fill="#ffffff"></rect></mask></defs></svg>